<svg width="57" height="49" viewBox="0 0 57 49" fill="none" xmlns="http://www.w3.org/2000/svg">
<path fill-rule="evenodd" clip-rule="evenodd" d="M51.5971 4.04683H40.4683L36.4215 0H20.2342L16.1873 4.04683H5.05854C2.26471 4.04683 0 6.31154 0 9.10537V43.5034C0 46.2973 2.26471 48.562 5.05854 48.562H51.5971C54.3909 48.562 56.6556 46.2973 56.6556 43.5034V9.10537C56.6556 6.31154 54.3909 4.04683 51.5971 4.04683ZM28.3278 41.48C20.5054 41.48 14.1639 35.1385 14.1639 27.3161C14.1639 19.4937 20.5054 13.1522 28.3278 13.1522C36.1502 13.1522 42.4917 19.4937 42.4917 27.3161C42.4917 35.1385 36.1502 41.48 28.3278 41.48Z" fill="#3398DE"/>
</svg>
