<svg width="40" height="40" viewBox="0 0 40 40" fill="none" xmlns="http://www.w3.org/2000/svg">
<circle cx="20" cy="20" r="19.5" fill="#ffffff00" stroke="#ffffff"/>
<path d="M20.6185 17.4292C21.5223 17.6324 23.4251 17.8763 24.8522 17.1447C26.2793 16.4131 26.8026 14.9498 26.9929 14.1776C27.0405 13.9337 26.8502 13.6898 26.5648 13.6085C25.6133 13.4866 23.7105 13.2427 22.2834 13.9337C21.3796 14.3808 20.8087 15.1937 20.5233 15.8847V14.2182C21.2369 13.6085 22.2834 12.4704 22.2834 11.1698C22.2834 9.82849 21.0942 8.60912 20.4282 8.04008C20.1427 7.79621 19.7146 7.79621 19.4292 8.04008C18.7156 8.64977 17.5264 9.82849 17.5264 11.1698C17.5264 12.4704 18.5729 13.6085 19.2865 14.2182V15.8847C18.9535 15.1937 18.4302 14.3808 17.5264 13.9337C16.0993 13.2021 14.1964 13.4866 13.2926 13.6492C13.0072 13.7305 12.8169 13.9743 12.8645 14.2182C13.0547 14.9498 13.578 16.4537 15.0051 17.1853C16.4322 17.9169 18.3351 17.6324 19.2389 17.4698C19.2865 17.4698 19.2865 17.4698 19.334 17.4292V20.5589C19.0011 19.8679 18.4778 19.055 17.5739 18.6079C16.1468 17.8763 14.244 18.1608 13.3402 18.3234C13.0547 18.4047 12.8645 18.6486 12.912 18.8924C13.1023 19.6241 13.6256 21.1279 15.0527 21.8596C16.4798 22.5912 18.3826 22.3067 19.2865 22.1441C19.334 22.1441 19.334 22.1441 19.3816 22.1034V25.2331C19.0486 24.5422 18.5253 23.7293 17.6215 23.2822C16.1944 22.5505 14.2916 22.8351 13.3877 22.9976C13.1023 23.0789 12.912 23.3228 12.9596 23.5667C13.1499 24.2983 13.6732 25.8022 15.1003 26.5338C16.5274 27.2654 18.4302 26.9809 19.334 26.8183C19.3816 26.8183 19.3816 26.8183 19.4292 26.7777V31.6145C19.4292 31.899 19.7146 32.1429 20.0476 32.1429C20.3806 32.1429 20.666 31.899 20.666 31.6145V26.737C20.7136 26.737 20.7136 26.737 20.7612 26.7777C21.665 26.9809 23.5678 27.2248 24.9949 26.4931C26.4221 25.7615 26.9453 24.2983 27.1356 23.526C27.1832 23.2822 26.9929 23.0383 26.7075 22.957C25.6133 22.7944 23.7105 22.5505 22.2834 23.2822C21.3796 23.7293 20.8087 24.5422 20.5233 25.2331V22.1034C20.5709 22.1034 20.5709 22.1034 20.6185 22.1441C21.5223 22.3473 23.4251 22.5912 24.8522 21.8596C26.2793 21.1279 26.8026 19.6647 26.9929 18.8924C27.0405 18.6486 26.8502 18.4047 26.5648 18.3234C25.6133 18.1608 23.7105 17.8763 22.2834 18.6079C21.3796 19.055 20.8087 19.8679 20.5233 20.5589V17.4292H20.6185Z" fill="#ffffff"/>
<line x1="6.37228" y1="5.66623" x2="32.3723" y2="34.6662" stroke="#ffffff"/>
</svg>
