<svg width="43" height="38" viewBox="0 0 43 38" fill="none" xmlns="http://www.w3.org/2000/svg">
<path d="M40.7633 30.6206C38.8276 29.1589 36.6838 28.0904 34.4176 27.4092C34.4041 27.4024 34.3897 27.4024 34.3752 27.3967C32.5205 26.8436 30.5857 26.5449 28.6019 26.5449C27.9525 26.5449 27.3098 26.5844 26.671 26.6451C26.619 26.6422 26.567 26.6519 26.5159 26.6654C24.2218 26.9005 22.0125 27.5229 19.9486 28.5076C19.9149 28.5172 19.885 28.5355 19.8513 28.5529C18.6633 29.129 17.5177 29.8093 16.4415 30.6206C14.6359 31.9839 14.2755 34.5632 15.6389 36.3698C16.4097 37.3911 17.6343 38 18.9129 38H38.2919C40.5542 38 42.3945 36.1588 42.3945 33.8965C42.3925 32.616 41.7846 31.3904 40.7633 30.6206ZM38.2899 37.0365H18.9129C17.932 37.0365 16.9965 36.5702 16.4049 35.7888C15.3614 34.4052 15.6379 32.4339 17.0196 31.3914C17.9532 30.688 18.9389 30.0858 19.9612 29.5674L22.4171 32.3905C22.5135 32.5004 22.6465 32.5562 22.7804 32.5562C22.8931 32.5562 23.0039 32.5167 23.0964 32.4377C23.2968 32.2624 23.318 31.9579 23.1436 31.7585L20.863 29.1358C22.632 28.3554 24.507 27.8572 26.4465 27.6424L30.5761 32.3895C30.6715 32.4994 30.8054 32.5562 30.9403 32.5562C31.0521 32.5562 31.1638 32.5167 31.2554 32.4377C31.4558 32.2614 31.476 31.9579 31.3036 31.7565L27.6403 27.547C27.9602 27.5306 28.2781 27.5094 28.6009 27.5094C30.4335 27.5094 32.2227 27.7782 33.9416 28.2735L37.523 32.3886C37.6193 32.4984 37.7513 32.5543 37.8862 32.5543C37.999 32.5543 38.1107 32.5148 38.2023 32.4358C38.4027 32.2614 38.4239 31.9579 38.2495 31.7565L35.7617 28.8968C37.3207 29.525 38.8073 30.3508 40.1823 31.3894C40.9646 31.9781 41.43 32.9156 41.43 33.8965C41.429 35.6279 40.0214 37.0365 38.2899 37.0365Z" fill="#3398de"/>
<path d="M38.2896 34.7068H18.9125C18.6466 34.7068 18.4308 34.9236 18.4308 35.1885C18.4308 35.4535 18.6466 35.6703 18.9125 35.6703H38.2896C38.5555 35.6703 38.7714 35.4535 38.7714 35.1885C38.7714 34.9236 38.5565 34.7068 38.2896 34.7068Z" fill="#3398de"/>
<path d="M5.72412 23.6638C5.79349 23.6667 5.86383 23.6677 5.9332 23.6677C6.55948 23.6677 7.16938 23.5472 7.7629 23.3536C9.23514 25.189 11.4714 26.325 13.9303 26.325H18.5378C21.9765 26.325 25.0058 24.1292 26.0743 20.86L28.1391 14.5423C28.2576 14.1839 28.2278 13.8004 28.0563 13.4641C27.8857 13.1279 27.5947 12.8773 27.2354 12.7608C27.0947 12.7145 26.9453 12.6904 26.796 12.6904H5.67305C4.89454 12.6904 4.26055 13.3244 4.26055 14.1029C4.26055 14.2523 4.28368 14.4007 4.33089 14.5413L4.48794 15.0221H2.59658C1.19179 15.0221 0.0519597 16.1224 0.00378437 17.5263C-0.052099 19.1103 0.512516 20.6191 1.59261 21.7792C2.6727 22.9392 4.14108 23.607 5.72412 23.6638ZM5.67305 13.6549H26.796C26.8432 13.6549 26.8904 13.6626 26.9357 13.6771C27.0504 13.7146 27.1429 13.7936 27.1968 13.9006C27.2517 14.0075 27.2604 14.1289 27.2228 14.2426L25.158 20.5603C24.2186 23.4306 21.5584 25.3605 18.5378 25.3605H13.9293C10.9078 25.3605 8.24754 23.4316 7.30909 20.5603L5.24429 14.2426C5.22984 14.1983 5.22213 14.1511 5.22213 14.1039C5.22406 13.8563 5.42543 13.6549 5.67305 13.6549ZM2.59658 15.9866H4.80301L6.39568 20.86C6.59031 21.4554 6.86877 22.0008 7.18383 22.5182C6.71846 22.6406 6.24441 22.7176 5.75881 22.7013C4.43206 22.655 3.20359 22.0942 2.29789 21.124C1.39316 20.1537 0.920079 18.8877 0.966327 17.5619C0.997159 16.6784 1.71304 15.9866 2.59658 15.9866Z" fill="#3398de"/>
<path d="M13.1118 11.542C13.1966 11.6027 13.2959 11.6326 13.3932 11.6326C13.5425 11.6326 13.6899 11.5632 13.7844 11.4322C13.9395 11.2163 13.8913 10.9148 13.6755 10.7596C13.5705 10.6835 13.4712 10.5987 13.3787 10.5072C12.9211 10.0476 12.6696 9.4377 12.6705 8.78926C12.6715 8.14082 12.9249 7.53092 13.3845 7.07325C14.9733 5.48925 15.2152 2.98991 13.9607 1.13131C13.8113 0.910668 13.5126 0.853821 13.292 1.00124C13.0714 1.15058 13.0135 1.44927 13.1619 1.66991C14.1592 3.14697 13.9665 5.13275 12.7043 6.39109C12.0626 7.03086 11.708 7.88163 11.707 8.78829C11.7061 9.69495 12.0568 10.5467 12.6966 11.1884C12.8266 11.3165 12.9654 11.435 13.1118 11.542Z" fill="#3398de"/>
<path d="M19.1946 10.6237C19.2794 10.6844 19.3786 10.7143 19.476 10.7143C19.6253 10.7143 19.7727 10.6449 19.8662 10.5139C20.0223 10.298 19.9731 9.99645 19.7583 9.84133C19.6532 9.76521 19.554 9.68042 19.4615 9.58889C18.5173 8.6408 18.5182 7.10015 19.4673 6.15399C21.0551 4.56999 21.297 2.07161 20.0435 0.212048C19.8941 -0.00763171 19.5954 -0.0664058 19.3748 0.0819741C19.1532 0.231318 19.0963 0.530005 19.2447 0.750648C20.2419 2.2277 20.0492 4.21349 18.7861 5.47183C17.4613 6.79279 17.4593 8.9443 18.7803 10.2691C18.9084 10.3992 19.0472 10.5177 19.1946 10.6237Z" fill="#3398de"/>
</svg>