<svg width="37" height="36" viewBox="0 0 37 36" fill="none" xmlns="http://www.w3.org/2000/svg">
<path d="M21.9835 18.9009C21.7433 18.8358 21.4963 18.9769 21.4308 19.2166C21.3656 19.4566 21.5069 19.7038 21.7466 19.7693C25.3772 20.7591 28.158 23.7894 28.8314 27.489C28.8709 27.7063 29.0604 27.8584 29.2737 27.8584C29.3003 27.8584 29.3276 27.856 29.3548 27.8512C29.5992 27.8065 29.7614 27.5722 29.717 27.3277C28.9821 23.2892 25.9464 19.9814 21.9835 18.9009Z" fill="#3398de"/>
<path d="M35.555 30.9195H35.2138V30.915C35.2138 22.1149 28.5733 14.8408 20.0409 13.8289C20.6813 13.2632 21.088 12.4385 21.088 11.5188C21.088 9.81763 19.7039 8.43359 18.0026 8.43359C16.3012 8.43359 14.9171 9.81763 14.9171 11.5188C14.9171 12.4385 15.3238 13.2632 15.9642 13.8289C7.43181 14.8408 0.791347 22.1149 0.791347 30.915V30.9195H0.450064C0.201516 30.9195 0 31.1209 0 31.3695V35.5499C0 35.7985 0.201516 36 0.450064 36H35.555C35.8036 36 36.0051 35.7985 36.0051 35.5499V31.3695C36.0051 31.1209 35.8036 30.9195 35.555 30.9195ZM15.8173 11.5188C15.8173 10.3139 16.7976 9.33372 18.0026 9.33372C19.2075 9.33372 20.1878 10.3139 20.1878 11.5188C20.1878 12.7237 19.2075 13.7041 18.0026 13.7041C16.7976 13.7041 15.8173 12.7237 15.8173 11.5188ZM1.69147 30.915C1.69147 21.9212 9.00852 14.6042 18.0026 14.6042C26.9966 14.6042 34.3136 21.9212 34.3136 30.915V30.9195H1.69147V30.915ZM35.105 35.0999H0.900128V31.8196H35.105V35.0999Z" fill="#3398de"/>
<path d="M15.815 6.6749C16.0635 6.6749 16.265 6.4734 16.265 6.22483C16.265 5.97631 16.0635 5.77477 15.815 5.77477C15.2671 5.77477 14.8214 5.32889 14.8214 4.78103C14.8214 4.23316 15.2671 3.78751 15.815 3.78751C16.859 3.78751 17.7086 2.93793 17.7086 1.89387C17.7086 0.849585 16.859 0 15.815 0C15.5664 0 15.3649 0.201493 15.3649 0.450064C15.3649 0.698589 15.5664 0.900128 15.815 0.900128C16.3628 0.900128 16.8085 1.34601 16.8085 1.89387C16.8085 2.44173 16.3628 2.88738 15.815 2.88738C14.7709 2.88738 13.9213 3.73697 13.9213 4.78103C13.9213 5.82531 14.7709 6.6749 15.815 6.6749Z" fill="#3398de"/>
<path d="M20.19 6.6749C20.4386 6.6749 20.6401 6.4734 20.6401 6.22483C20.6401 5.97631 20.4386 5.77477 20.19 5.77477C19.6422 5.77477 19.1963 5.32889 19.1963 4.78103C19.1963 4.23316 19.6422 3.78751 20.19 3.78751C21.2341 3.78751 22.0837 2.93793 22.0837 1.89387C22.0837 0.849585 21.2341 0 20.19 0C19.9415 0 19.7399 0.201493 19.7399 0.450064C19.7399 0.698589 19.9415 0.900128 20.19 0.900128C20.7379 0.900128 21.1836 1.34601 21.1836 1.89387C21.1836 2.44173 20.7379 2.88738 20.19 2.88738C19.1457 2.88738 18.2961 3.73697 18.2961 4.78103C18.2961 5.82531 19.1457 6.6749 20.19 6.6749Z" fill="#3398de"/>
</svg>