<svg width="36" height="35" viewBox="0 0 36 35" fill="none" xmlns="http://www.w3.org/2000/svg">
<path d="M33.2304 5.4487C32.2541 3.15114 30.8435 2.12479 28.1993 1.78949C28.1807 1.78689 28.1616 1.78614 28.1438 1.78614C27.9926 1.75525 27.8386 1.73925 27.6842 1.72995C27.6773 1.72883 27.6725 1.72511 27.6656 1.72437L12.9489 0.0177525C12.1542 -0.0648617 11.3729 0.14279 10.748 0.600517C9.68304 1.38126 9.50798 2.81175 10.3582 3.78935C10.6755 4.15479 11.1269 4.39779 11.6367 4.47482L14.6181 4.86817C13.8291 8.00974 12.4399 11.3995 11.2979 14.1753C11.2225 14.358 11.3295 14.5463 11.5285 14.6152C11.5698 14.6293 11.6124 14.636 11.6545 14.636C11.8158 14.636 11.9718 14.5381 12.0314 14.3934C13.1766 11.6094 14.5877 8.16827 15.3852 4.96195L26.539 6.19558C26.5536 6.19707 26.5686 6.19781 26.5832 6.19781C27.1149 6.25959 27.6709 6.13418 28.1215 5.80409C28.8627 5.26078 28.9846 4.26494 28.393 3.5843C28.2609 3.4321 28.0186 3.40642 27.852 3.52848C27.6859 3.65017 27.6583 3.87271 27.7916 4.02528C28.1182 4.40151 28.051 4.95153 27.6413 5.25147C27.0885 5.6571 26.2785 5.573 25.8371 5.0654C25.5539 4.73941 25.4254 4.33118 25.4761 3.91662C25.5267 3.50206 25.7504 3.1303 26.1058 2.87017C27.0634 2.16795 28.4647 2.31271 29.2294 3.19244C29.6825 3.71381 29.9025 4.36728 29.8539 4.99619C29.1856 8.47826 27.6336 12.6067 26.3858 15.924C25.5421 18.1683 24.8751 19.9415 24.7009 20.9255C24.3236 23.05 24.5967 29.9211 24.6765 31.7193L19.8303 31.0796C19.6195 31.0517 19.425 31.186 19.3946 31.3795C19.3646 31.5726 19.5105 31.7516 19.7213 31.7796L25.0263 32.4799C25.0445 32.4825 25.0627 32.4836 25.0806 32.4836C25.1336 32.4836 25.1843 32.4714 25.2309 32.4531C25.235 32.4516 25.2394 32.4524 25.2431 32.4505L35.7773 27.948C35.9212 27.8866 36.0091 27.7508 35.9994 27.6053C35.9475 26.8454 34.7095 8.92966 33.2304 5.4487ZM24.7114 3.83884C24.647 4.36579 24.7815 4.88529 25.0915 5.32404L15.1449 4.22363L11.7546 3.77633C11.4406 3.72869 11.1585 3.57686 10.9604 3.34837C10.3752 2.67517 10.496 1.6905 11.229 1.15314C11.6926 0.813007 12.2733 0.658571 12.8581 0.719229L25.7804 2.21745C25.7285 2.25057 25.6755 2.28108 25.6256 2.31792C25.1093 2.69676 24.7847 3.23636 24.7114 3.83884ZM25.4416 31.5872C25.359 29.661 25.1069 23.0329 25.4607 21.0405C25.6248 20.1161 26.3149 18.2803 27.1141 16.1551C28.3703 12.8144 29.9333 8.65726 30.6174 5.08475C30.6781 4.32374 30.4569 3.57426 29.9896 2.94907C31.1689 3.4347 31.9064 4.27796 32.5135 5.70585C33.8593 8.87347 35.0588 25.2229 35.214 27.4107L25.4416 31.5872Z" fill="#3398de"/>
<path d="M19.1015 20.3018C17.3881 18.5632 15.5524 18.1981 14.314 18.1981C12.7574 18.1981 11.3914 18.7541 10.5793 19.3699C10.5793 19.3082 10.5793 19.2591 10.5793 19.2453C10.6048 18.1627 11.0445 16.3173 13.6984 16.1223C13.9103 16.1067 14.0684 15.9362 14.0514 15.742C14.0343 15.5474 13.8487 15.4007 13.6372 15.4179C10.2587 15.6657 9.83483 18.1665 9.8097 19.2308C9.80889 19.2747 9.80808 19.3145 9.80727 19.3554C8.99274 18.7451 7.63721 18.1981 6.09324 18.1981C4.85483 18.1981 3.01909 18.5632 1.30573 20.3018C-1.62132 23.2722 1.23927 29.3428 1.57481 30.0249C1.90427 30.6948 4.36408 34.4403 7.33085 34.9107C7.70043 34.9691 8.04083 34.9985 8.34273 34.9985C9.46322 34.9985 9.93816 34.5877 10.1971 34.3004C10.452 34.5922 10.9221 35 12.0495 35C12.3554 35 12.7007 34.9699 13.0759 34.9107C16.0423 34.4403 18.5025 30.6948 18.8316 30.0253C19.1675 29.3428 22.0289 23.2737 19.1015 20.3018ZM18.1301 29.7343C17.8744 30.2542 15.5767 33.7969 12.9455 34.2137C12.6136 34.2666 12.3121 34.293 12.0499 34.293C11.151 34.293 10.9116 33.9994 10.7191 33.763C10.6846 33.721 10.6522 33.6819 10.621 33.6477C10.5225 33.5409 10.486 33.504 10.486 33.504C10.4131 33.4315 10.3098 33.3894 10.2024 33.3894C10.1999 33.3894 10.1971 33.3894 10.1943 33.3894C10.0841 33.3917 9.9795 33.4371 9.90818 33.5145L9.78255 33.6477C9.74932 33.6819 9.71569 33.7214 9.67922 33.7642C9.47822 33.999 9.22778 34.2915 8.34354 34.2915C8.0854 34.2915 7.78877 34.2654 7.46255 34.2133C4.83051 33.7965 2.5332 30.2538 2.2775 29.7336C2.15187 29.4786 -0.765049 23.4579 1.87712 20.7762C3.08311 19.5519 4.54117 18.9052 6.09365 18.9052C8.16848 18.9052 9.6784 20.0011 9.83847 20.4491C9.8401 20.4536 9.84374 20.457 9.84536 20.4614C9.85306 20.4852 9.86076 20.499 9.86765 20.5102C9.87211 20.518 9.879 20.5232 9.88386 20.5303C9.89237 20.5425 9.9021 20.5537 9.91223 20.5652C9.92722 20.5813 9.94303 20.5954 9.96005 20.6088C9.97139 20.617 9.98193 20.6255 9.99409 20.6326C10.0143 20.6449 10.0362 20.6546 10.0585 20.6627C10.0707 20.6676 10.0816 20.6728 10.0942 20.6761C10.129 20.6858 10.1655 20.6921 10.2024 20.6921C10.2032 20.6921 10.2036 20.6925 10.2044 20.6925C10.2409 20.6925 10.2774 20.6862 10.3134 20.6765C10.3252 20.6732 10.3361 20.6683 10.3471 20.6642C10.3616 20.6587 10.3766 20.6557 10.3904 20.6482C10.3977 20.6445 10.4026 20.6389 10.4095 20.6348C10.4253 20.6255 10.4394 20.6147 10.4536 20.6036C10.4698 20.5909 10.4848 20.5779 10.4978 20.563C10.5087 20.5511 10.5181 20.5388 10.527 20.5251C10.5387 20.5072 10.5493 20.4893 10.5574 20.4704C10.5606 20.4625 10.5667 20.457 10.5695 20.4488C10.7292 20.0007 12.2391 18.9052 14.314 18.9052C15.8664 18.9052 17.3245 19.5519 18.5309 20.7762C21.1739 23.4593 18.2557 29.479 18.1301 29.7343Z" fill="#3398de"/>
<path d="M5.04844 14.6497L5.14894 14.6947C5.24579 14.7669 5.52905 15.0308 5.62834 15.2243C5.64779 15.2626 5.67048 15.3117 5.69804 15.372C5.89904 15.8055 6.31684 16.708 7.13664 17.2022C7.51189 17.4284 7.94226 17.5483 8.38235 17.5483C9.09071 17.5483 9.73748 17.2349 10.071 16.7311C10.706 15.7713 10.3271 14.6668 9.12799 13.9821C8.09139 13.39 6.73545 13.3751 5.21904 13.9486L5.06992 14.0052C4.93011 14.0584 4.8369 14.1819 4.83244 14.3211C4.82799 14.4603 4.91228 14.5887 5.04844 14.6497ZM8.72154 14.5823C9.55876 15.0605 9.82379 15.743 9.41288 16.3638C9.21836 16.6585 8.82325 16.8412 8.38235 16.8412C8.09341 16.8412 7.80853 16.7616 7.55971 16.6112C6.93443 16.2343 6.57781 15.4647 6.40721 15.0959C6.3756 15.027 6.34885 14.9694 6.32535 14.924C6.2439 14.7651 6.10814 14.595 5.96793 14.448C7.05276 14.1235 7.99656 14.1685 8.72154 14.5823Z" fill="#3398de"/>
</svg>