<svg width="40" height="40" viewBox="0 0 40 40" fill="none" xmlns="http://www.w3.org/2000/svg">
<circle cx="20" cy="20" r="19.5" fill="#ffffff00" stroke="#3398de"/>
<path d="M18.3082 21.72C18.3082 20.744 18.4922 19.928 18.8602 19.272C19.2282 18.616 19.8522 17.984 20.7322 17.376C21.3722 16.928 21.8522 16.576 22.1722 16.32C22.4922 16.048 22.7402 15.752 22.9162 15.432C23.1082 15.096 23.2042 14.704 23.2042 14.256C23.2042 13.536 22.9162 12.968 22.3402 12.552C21.7642 12.136 20.9322 11.928 19.8442 11.928C18.2442 11.928 16.7642 12.248 15.4042 12.888V10.776C16.0442 10.504 16.7402 10.288 17.4922 10.128C18.2602 9.952 19.0442 9.864 19.8442 9.864C21.6042 9.864 23.0042 10.256 24.0442 11.04C25.0842 11.824 25.6042 12.896 25.6042 14.256C25.6042 15.088 25.3882 15.8 24.9562 16.392C24.5242 16.984 23.8442 17.616 22.9162 18.288C22.2442 18.768 21.7642 19.152 21.4762 19.44C21.1882 19.712 20.9802 20.024 20.8522 20.376C20.7242 20.712 20.6602 21.168 20.6602 21.744V22.224H18.3082V21.72ZM19.4602 27.36C19.0602 27.36 18.7242 27.224 18.4522 26.952C18.1802 26.68 18.0442 26.344 18.0442 25.944C18.0442 25.544 18.1802 25.208 18.4522 24.936C18.7242 24.664 19.0602 24.528 19.4602 24.528C19.8602 24.528 20.1962 24.664 20.4682 24.936C20.7562 25.208 20.9002 25.544 20.9002 25.944C20.9002 26.344 20.7562 26.68 20.4682 26.952C20.1962 27.224 19.8602 27.36 19.4602 27.36Z" fill="#3398de"/>
</svg>
