<svg width="20" height="39" viewBox="0 0 20 39" fill="none" xmlns="http://www.w3.org/2000/svg">
<path d="M3.27011 22.6347L9.34237 38.4479C9.43506 38.7078 9.68556 38.8808 9.98122 38.8887C9.98788 38.8887 9.99501 38.8889 10.0017 38.8889C10.2916 38.8889 10.544 38.7289 10.6534 38.4652L16.7294 22.6347C18.5674 22.4232 20 20.8653 20 18.9783C20 17.9871 19.6074 17.0647 18.913 16.3777C19.5841 15.7106 20 14.7889 20 13.772C20 12.6235 19.4719 11.5622 18.5702 10.8665C18.7608 10.1464 18.8573 9.40416 18.8573 8.65553C18.8573 3.88295 14.959 0 10.1676 0C5.37611 0 1.47831 3.88295 1.47831 8.65553C1.47831 9.32346 1.5596 9.99685 1.72026 10.6629C0.649792 11.3346 0 12.4929 0 13.772C0 14.7886 0.415567 15.7102 1.08622 16.3772C0.392157 17.0642 0 17.9882 0 18.9783C0 20.8653 1.43217 22.4232 3.27011 22.6347ZM10.0012 37.4486L4.30232 22.6079C5.05137 22.4846 5.74352 22.1384 6.28782 21.6042C7.48948 22.2026 8.82282 22.5173 10.1676 22.5173C11.4434 22.5173 12.6731 22.2453 13.8272 21.7079C14.353 22.1813 15.004 22.4918 15.6972 22.608L10.0012 37.4486ZM0.9735 13.772C0.9735 12.7319 1.55865 11.8001 2.50077 11.3401C2.71277 11.2363 2.81973 10.9959 2.7546 10.7692C2.55354 10.0695 2.45181 9.35835 2.45181 8.65553C2.45181 4.41891 5.91325 0.972222 10.1676 0.972222C14.4223 0.972222 17.8838 4.41891 17.8838 8.65553C17.8838 9.42647 17.7687 10.1891 17.542 10.9225C17.4769 11.1331 17.5615 11.3612 17.7483 11.4782C18.5488 11.9788 19.0265 12.8364 19.0265 13.772C19.0265 15.2667 17.8049 16.4827 16.3033 16.4827C15.538 16.4827 14.8021 16.1558 14.285 15.5859C14.1899 15.4817 14.0582 15.4264 13.9242 15.4264C13.8481 15.4264 13.7721 15.444 13.7012 15.4803C12.5942 16.05 11.4053 16.3388 10.1676 16.3388C8.85942 16.3388 7.56269 16.0032 6.41854 15.3685C6.21319 15.2541 5.9546 15.3035 5.80582 15.4853C5.2858 16.119 4.5167 16.4827 3.69626 16.4827C2.19513 16.4827 0.9735 15.2667 0.9735 13.772ZM3.69626 17.4549C4.67451 17.4549 5.59905 17.0739 6.28734 16.3979C7.48948 16.9963 8.82282 17.3111 10.1676 17.3111C11.4434 17.3111 12.6726 17.0388 13.8272 16.5014C14.5041 17.1112 15.3878 17.4549 16.3033 17.4549C16.9659 17.4549 17.5869 17.278 18.1253 16.9725C18.6991 17.4862 19.0265 18.2037 19.0265 18.9783C19.0265 20.4729 17.8049 21.6889 16.3033 21.6889C15.538 21.6889 14.8021 21.3621 14.285 20.7924C14.1357 20.6286 13.8961 20.5861 13.7012 20.6868C12.5947 21.2564 11.4053 21.5451 10.1676 21.5451C8.85942 21.5451 7.56269 21.2094 6.41854 20.5747C6.21319 20.4606 5.9546 20.5099 5.80582 20.6915C5.2858 21.3253 4.5167 21.6889 3.69626 21.6889C2.19513 21.6889 0.9735 20.4729 0.9735 18.9783C0.9735 18.2043 1.30119 17.4862 1.87463 16.9727C2.41292 17.278 3.03372 17.4549 3.69626 17.4549Z" fill="#3398de"/>
</svg>